<svg version="1.1" id="svg2" xml:space="preserve" viewBox="174.63987635239567 68.54400000000001 708.3523956723338 341.08799999999997" xmlns="http://www.w3.org/2000/svg" style="max-height: 500px" width="708.3523956723338" height="341.08799999999997"><metadata id="metadata8">image/svg+xml</metadata><defs id="defs6"><clipPath clipPathUnits="userSpaceOnUse" id="clipPath20"><path d="M -2,-2 H 703 V 337 H -2 Z" id="path18"/></clipPath><clipPath clipPathUnits="userSpaceOnUse" id="clipPath106"><path d="M -2,-2 H 703 V 337 H -2 Z" id="path104"/></clipPath><clipPath clipPathUnits="userSpaceOnUse" id="clipPath112"><path d="M 181,0 H 310 V 20 H 181 Z" id="path110"/></clipPath><clipPath clipPathUnits="userSpaceOnUse" id="clipPath126"><path d="M -2,-2 H 703 V 337 H -2 Z" id="path124"/></clipPath><clipPath clipPathUnits="userSpaceOnUse" id="clipPath132"><path d="M 311,0 H 440 V 20 H 311 Z" id="path130"/></clipPath><clipPath clipPathUnits="userSpaceOnUse" id="clipPath146"><path d="M -2,-2 H 703 V 337 H -2 Z" id="path144"/></clipPath></defs><g id="g10" transform="matrix(1.3333333,0,0,-1.3333333,0,816)"><g id="g12" transform="matrix(1,0,0,-1,0,612)"><g id="g14" transform="matrix(0.75,0,0,0.75,133.125,54)"><g id="g16" clip-path="url(#clipPath20)"><path d="M 0,0 H 702 V 42 H 0 Z" style="fill: rgb(255, 255, 255); fill-opacity: 1; fill-rule: nonzero; stroke: none; --darkreader-inline-fill: var(--darkreader-text-ffffff, #e8e6e3); --darkreader-inline-stroke: none;" id="path22" data-darkreader-inline-fill="" data-darkreader-inline-stroke=""/><path d="M 0,42 H 181 V 336 H 0 Z" style="fill: rgb(255, 255, 255); fill-opacity: 1; fill-rule: nonzero; stroke: none; --darkreader-inline-fill: var(--darkreader-text-ffffff, #e8e6e3); --darkreader-inline-stroke: none;" id="path24" data-darkreader-inline-fill="" data-darkreader-inline-stroke=""/><path d="M 259,42 H 702 V 84 H 259 Z" style="fill: rgb(255, 255, 255); fill-opacity: 1; fill-rule: nonzero; stroke: none; --darkreader-inline-fill: var(--darkreader-text-ffffff, #e8e6e3); --darkreader-inline-stroke: none;" id="path26" data-darkreader-inline-fill="" data-darkreader-inline-stroke=""/><path d="m 181,84 h 52 v 252 h -52 z" style="fill: rgb(255, 255, 255); fill-opacity: 1; fill-rule: nonzero; stroke: none; --darkreader-inline-fill: var(--darkreader-text-ffffff, #e8e6e3); --darkreader-inline-stroke: none;" id="path28" data-darkreader-inline-fill="" data-darkreader-inline-stroke=""/><path d="m 337,84 h 365 v 21 H 337 Z" style="fill: rgb(255, 255, 255); fill-opacity: 1; fill-rule: nonzero; stroke: none; --darkreader-inline-fill: var(--darkreader-text-ffffff, #e8e6e3); --darkreader-inline-stroke: none;" id="path30" data-darkreader-inline-fill="" data-darkreader-inline-stroke=""/><path d="m 233,105 h 52 v 231 h -52 z" style="fill: rgb(255, 255, 255); fill-opacity: 1; fill-rule: nonzero; stroke: none; --darkreader-inline-fill: var(--darkreader-text-ffffff, #e8e6e3); --darkreader-inline-stroke: none;" id="path32" data-darkreader-inline-fill="" data-darkreader-inline-stroke=""/><path d="m 363,105 h 339 v 21 H 363 Z" style="fill: rgb(255, 255, 255); fill-opacity: 1; fill-rule: nonzero; stroke: none; --darkreader-inline-fill: var(--darkreader-text-ffffff, #e8e6e3); --darkreader-inline-stroke: none;" id="path34" data-darkreader-inline-fill="" data-darkreader-inline-stroke=""/><path d="m 285,126 h 26 v 210 h -26 z" style="fill: rgb(255, 255, 255); fill-opacity: 1; fill-rule: nonzero; stroke: none; --darkreader-inline-fill: var(--darkreader-text-ffffff, #e8e6e3); --darkreader-inline-stroke: none;" id="path36" data-darkreader-inline-fill="" data-darkreader-inline-stroke=""/><path d="m 363,126 h 339 v 21 H 363 Z" style="fill: rgb(255, 255, 255); fill-opacity: 1; fill-rule: nonzero; stroke: none; --darkreader-inline-fill: var(--darkreader-text-ffffff, #e8e6e3); --darkreader-inline-stroke: none;" id="path38" data-darkreader-inline-fill="" data-darkreader-inline-stroke=""/><path d="m 311,147 h 26 v 189 h -26 z" style="fill: rgb(255, 255, 255); fill-opacity: 1; fill-rule: nonzero; stroke: none; --darkreader-inline-fill: var(--darkreader-text-ffffff, #e8e6e3); --darkreader-inline-stroke: none;" id="path40" data-darkreader-inline-fill="" data-darkreader-inline-stroke=""/><path d="m 415,147 h 287 v 21 H 415 Z" style="fill: rgb(255, 255, 255); fill-opacity: 1; fill-rule: nonzero; stroke: none; --darkreader-inline-fill: var(--darkreader-text-ffffff, #e8e6e3); --darkreader-inline-stroke: none;" id="path42" data-darkreader-inline-fill="" data-darkreader-inline-stroke=""/><path d="m 337,168 h 26 v 168 h -26 z" style="fill: rgb(255, 255, 255); fill-opacity: 1; fill-rule: nonzero; stroke: none; --darkreader-inline-fill: var(--darkreader-text-ffffff, #e8e6e3); --darkreader-inline-stroke: none;" id="path44" data-darkreader-inline-fill="" data-darkreader-inline-stroke=""/><path d="m 467,168 h 235 v 42 H 467 Z" style="fill: rgb(255, 255, 255); fill-opacity: 1; fill-rule: nonzero; stroke: none; --darkreader-inline-fill: var(--darkreader-text-ffffff, #e8e6e3); --darkreader-inline-stroke: none;" id="path46" data-darkreader-inline-fill="" data-darkreader-inline-stroke=""/><path d="m 363,210 h 52 v 126 h -52 z" style="fill: rgb(255, 255, 255); fill-opacity: 1; fill-rule: nonzero; stroke: none; --darkreader-inline-fill: var(--darkreader-text-ffffff, #e8e6e3); --darkreader-inline-stroke: none;" id="path48" data-darkreader-inline-fill="" data-darkreader-inline-stroke=""/><path d="m 467,210 h 235 v 21 H 467 Z" style="fill: rgb(255, 255, 255); fill-opacity: 1; fill-rule: nonzero; stroke: none; --darkreader-inline-fill: var(--darkreader-text-ffffff, #e8e6e3); --darkreader-inline-stroke: none;" id="path50" data-darkreader-inline-fill="" data-darkreader-inline-stroke=""/><path d="m 415,231 h 52 v 105 h -52 z" style="fill: rgb(255, 255, 255); fill-opacity: 1; fill-rule: nonzero; stroke: none; --darkreader-inline-fill: var(--darkreader-text-ffffff, #e8e6e3); --darkreader-inline-stroke: none;" id="path52" data-darkreader-inline-fill="" data-darkreader-inline-stroke=""/><path d="m 572,231 h 130 v 21 H 572 Z" style="fill: rgb(255, 255, 255); fill-opacity: 1; fill-rule: nonzero; stroke: none; --darkreader-inline-fill: var(--darkreader-text-ffffff, #e8e6e3); --darkreader-inline-stroke: none;" id="path54" data-darkreader-inline-fill="" data-darkreader-inline-stroke=""/><path d="m 467,252 h 26 v 84 h -26 z" style="fill: rgb(255, 255, 255); fill-opacity: 1; fill-rule: nonzero; stroke: none; --darkreader-inline-fill: var(--darkreader-text-ffffff, #e8e6e3); --darkreader-inline-stroke: none;" id="path56" data-darkreader-inline-fill="" data-darkreader-inline-stroke=""/><path d="m 598,252 h 104 v 21 H 598 Z" style="fill: rgb(255, 255, 255); fill-opacity: 1; fill-rule: nonzero; stroke: none; --darkreader-inline-fill: var(--darkreader-text-ffffff, #e8e6e3); --darkreader-inline-stroke: none;" id="path58" data-darkreader-inline-fill="" data-darkreader-inline-stroke=""/><path d="m 493,273 h 52 v 63 h -52 z" style="fill: rgb(255, 255, 255); fill-opacity: 1; fill-rule: nonzero; stroke: none; --darkreader-inline-fill: var(--darkreader-text-ffffff, #e8e6e3); --darkreader-inline-stroke: none;" id="path60" data-darkreader-inline-fill="" data-darkreader-inline-stroke=""/><path d="m 624,273 h 78 v 42 h -78 z" style="fill: rgb(255, 255, 255); fill-opacity: 1; fill-rule: nonzero; stroke: none; --darkreader-inline-fill: var(--darkreader-text-ffffff, #e8e6e3); --darkreader-inline-stroke: none;" id="path62" data-darkreader-inline-fill="" data-darkreader-inline-stroke=""/><path d="m 545,315 h 27 v 21 h -27 z" style="fill: rgb(255, 255, 255); fill-opacity: 1; fill-rule: nonzero; stroke: none; --darkreader-inline-fill: var(--darkreader-text-ffffff, #e8e6e3); --darkreader-inline-stroke: none;" id="path64" data-darkreader-inline-fill="" data-darkreader-inline-stroke=""/><path d="m 650,315 h 52 v 21 h -52 z" style="fill: rgb(255, 255, 255); fill-opacity: 1; fill-rule: nonzero; stroke: none; --darkreader-inline-fill: var(--darkreader-text-ffffff, #e8e6e3); --darkreader-inline-stroke: none;" id="path66" data-darkreader-inline-fill="" data-darkreader-inline-stroke=""/><path d="m 180,41 h 79 v 43 h -79 z" style="fill: rgb(234, 153, 153); fill-opacity: 1; fill-rule: nonzero; stroke: none; --darkreader-inline-fill: var(--darkreader-text-ea9999, #e88d8d); --darkreader-inline-stroke: none;" id="path68" data-darkreader-inline-fill="" data-darkreader-inline-stroke=""/><path d="m 232,83 h 105 v 22 H 232 Z" style="fill: rgb(234, 153, 153); fill-opacity: 1; fill-rule: nonzero; stroke: none; --darkreader-inline-fill: var(--darkreader-text-ea9999, #e88d8d); --darkreader-inline-stroke: none;" id="path70" data-darkreader-inline-fill="" data-darkreader-inline-stroke=""/><path d="m 284,104 h 79 v 22 h -79 z" style="fill: rgb(234, 153, 153); fill-opacity: 1; fill-rule: nonzero; stroke: none; --darkreader-inline-fill: var(--darkreader-text-ea9999, #e88d8d); --darkreader-inline-stroke: none;" id="path72" data-darkreader-inline-fill="" data-darkreader-inline-stroke=""/><path d="m 310,125 h 53 v 22 h -53 z" style="fill: rgb(234, 153, 153); fill-opacity: 1; fill-rule: nonzero; stroke: none; --darkreader-inline-fill: var(--darkreader-text-ea9999, #e88d8d); --darkreader-inline-stroke: none;" id="path74" data-darkreader-inline-fill="" data-darkreader-inline-stroke=""/><path d="m 336,146 h 79 v 22 h -79 z" style="fill: rgb(234, 153, 153); fill-opacity: 1; fill-rule: nonzero; stroke: none; --darkreader-inline-fill: var(--darkreader-text-ea9999, #e88d8d); --darkreader-inline-stroke: none;" id="path76" data-darkreader-inline-fill="" data-darkreader-inline-stroke=""/><path d="m 362,167 h 105 v 43 H 362 Z" style="fill: rgb(234, 153, 153); fill-opacity: 1; fill-rule: nonzero; stroke: none; --darkreader-inline-fill: var(--darkreader-text-ea9999, #e88d8d); --darkreader-inline-stroke: none;" id="path78" data-darkreader-inline-fill="" data-darkreader-inline-stroke=""/><path d="m 414,209 h 53 v 22 h -53 z" style="fill: rgb(234, 153, 153); fill-opacity: 1; fill-rule: nonzero; stroke: none; --darkreader-inline-fill: var(--darkreader-text-ea9999, #e88d8d); --darkreader-inline-stroke: none;" id="path80" data-darkreader-inline-fill="" data-darkreader-inline-stroke=""/><path d="m 466,230 h 106 v 22 H 466 Z" style="fill: rgb(234, 153, 153); fill-opacity: 1; fill-rule: nonzero; stroke: none; --darkreader-inline-fill: var(--darkreader-text-ea9999, #e88d8d); --darkreader-inline-stroke: none;" id="path82" data-darkreader-inline-fill="" data-darkreader-inline-stroke=""/><path d="m 492,251 h 106 v 22 H 492 Z" style="fill: rgb(234, 153, 153); fill-opacity: 1; fill-rule: nonzero; stroke: none; --darkreader-inline-fill: var(--darkreader-text-ea9999, #e88d8d); --darkreader-inline-stroke: none;" id="path84" data-darkreader-inline-fill="" data-darkreader-inline-stroke=""/><path d="m 544,272 h 80 v 43 h -80 z" style="fill: rgb(234, 153, 153); fill-opacity: 1; fill-rule: nonzero; stroke: none; --darkreader-inline-fill: var(--darkreader-text-ea9999, #e88d8d); --darkreader-inline-stroke: none;" id="path86" data-darkreader-inline-fill="" data-darkreader-inline-stroke=""/><path d="m 571,314 h 79 v 22 h -79 z" style="fill: rgb(234, 153, 153); fill-opacity: 1; fill-rule: nonzero; stroke: none; --darkreader-inline-fill: var(--darkreader-text-ea9999, #e88d8d); --darkreader-inline-stroke: none;" id="path88" data-darkreader-inline-fill="" data-darkreader-inline-stroke=""/><g id="g90"/><path d="m -0.5,-1 v 337 m 181,-337 v 337 m 26,-316 v 22 m 0,41 v 253 m 26,-316 v 22 m 0,41 v 253 m 26,-316 v 64 m 0,20 v 232 m 26,-316 v 64 m 0,20 v 232 m 26,-337 v 85 m 0,41 v 211 m 26,-316 v 85 m 0,41 v 190 m 26,-316 v 127 m 0,20 v 169 m 26,-316 v 127 m 0,62 v 127 m 26,-316 v 148 m 0,41 v 127 m 26,-337 v 169 m 0,62 v 106 m 26,-316 v 316 m 26,-316 v 211 m 0,20 v 85 m 26,-316 v 211 m 0,41 v 64 m 26,-316 v 211 m 0,41 v 64 m 27,-337 v 253 m 0,62 v 22 m 26,-316 v 253 m 26,-253 v 295 m 26,-295 v 316 m 26,-316 V 336 M -1,-0.5 h 703 m -522,21 h 522 m -703,21 h 703 m -703,21 h 703 m -703,21 h 703 m -703,21 h 703 m -703,21 h 703 m -703,21 h 703 m -703,21 h 703 m -703,21 h 703 m -703,21 h 703 m -703,21 h 703 m -703,21 h 703 m -703,21 h 703 m -703,21 h 703 m -703,21 h 703 m -703,21 H 702 M 701.5,-1 v 337" style="fill: none; stroke: rgb(0, 0, 0); stroke-width: 1px; stroke-linecap: butt; stroke-linejoin: miter; stroke-miterlimit: 10; stroke-dasharray: none; stroke-opacity: 1; --darkreader-inline-fill: none; --darkreader-inline-stroke: var(--darkreader-text-000000, #e8e6e3);" id="path92" data-darkreader-inline-fill="" data-darkreader-inline-stroke=""/><text transform="translate(3,36.245117)" style="font-variant: normal; font-weight: bold; font-size: 13px; font-family: Arial; writing-mode: horizontal-tb; fill: rgb(102, 102, 102); fill-opacity: 1; fill-rule: nonzero; stroke: none; --darkreader-inline-fill: var(--darkreader-text-666666, #a8a095); --darkreader-inline-stroke: none;" id="text96" data-darkreader-inline-fill="" data-darkreader-inline-stroke=""><tspan x="0 5.0570002 8.658 20.215 23.816 27.417 34.645 41.873001 46.202 54.132 62.062 69.290001 72.890999 77.947998 85.176003 92.403999 99.632004 107.562 114.79" y="0" id="tspan94">* milestone reached</tspan></text>
</g></g><g id="g98"><g id="g100" transform="matrix(0.75,0,0,0.75,133.125,54)"><g id="g102" clip-path="url(#clipPath106)"><g id="g108" clip-path="url(#clipPath112)"><text transform="translate(184,15.245117)" style="font-variant: normal; font-weight: bold; font-size: 13px; font-family: Arial; writing-mode: horizontal-tb; fill: rgb(0, 0, 0); fill-opacity: 1; fill-rule: nonzero; stroke: none; --darkreader-inline-fill: var(--darkreader-text-000000, #e8e6e3); --darkreader-inline-stroke: none;" id="text116" data-darkreader-inline-fill="" data-darkreader-inline-stroke=""><tspan x="0 12.025 19.253 26.481001 33.709 37.310001 44.537998 51.765999 55.367001 59.695999 66.924004 70.525002 77.752998 84.981003 88.582001 92.911003 96.512001 103.74 107.341 114.569 121.797" y="0" id="tspan114">Week 13 (4/14 - 4/18)</tspan></text>
</g></g></g></g><g id="g118"><g id="g120" transform="matrix(0.75,0,0,0.75,133.125,54)"><g id="g122" clip-path="url(#clipPath126)"><g id="g128" clip-path="url(#clipPath132)"><text transform="translate(314,15.245117)" style="font-variant: normal; font-weight: bold; font-size: 13px; font-family: Arial; writing-mode: horizontal-tb; fill: rgb(0, 0, 0); fill-opacity: 1; fill-rule: nonzero; stroke: none; --darkreader-inline-fill: var(--darkreader-text-000000, #e8e6e3); --darkreader-inline-stroke: none;" id="text136" data-darkreader-inline-fill="" data-darkreader-inline-stroke=""><tspan x="0 12.025 19.253 26.481001 33.709 37.310001 44.537998 51.765999 55.367001 59.695999 66.924004 70.525002 77.752998 84.981003 88.582001 92.911003 96.512001 103.74 107.341 114.569 121.797" y="0" id="tspan134">Week 14 (4/21 - 4/25)</tspan></text>
</g></g></g></g><g id="g138"><g id="g140" transform="matrix(0.75,0,0,0.75,133.125,54)"><g id="g142" clip-path="url(#clipPath146)"><text transform="translate(444,15.245117)" style="font-variant: normal; font-weight: bold; font-size: 13px; font-family: Arial; writing-mode: horizontal-tb; fill: rgb(0, 0, 0); fill-opacity: 1; fill-rule: nonzero; stroke: none; --darkreader-inline-fill: var(--darkreader-text-000000, #e8e6e3); --darkreader-inline-stroke: none;" id="text150" data-darkreader-inline-fill="" data-darkreader-inline-stroke=""><tspan x="0 12.025 19.253 26.481001 33.709 37.310001 44.537998 51.765999 55.367001 59.695999 66.924004 70.525002 77.752998 84.981003 88.582001 92.911003 96.512001 103.74 107.341 114.569" y="0" id="tspan148">Week 15 (4/28 - 5/2)</tspan></text>
<text transform="translate(575,15.245117)" style="font-variant: normal; font-weight: bold; font-size: 13px; font-family: Arial; writing-mode: horizontal-tb; fill: rgb(0, 0, 0); fill-opacity: 1; fill-rule: nonzero; stroke: none; --darkreader-inline-fill: var(--darkreader-text-000000, #e8e6e3); --darkreader-inline-stroke: none;" id="text154" data-darkreader-inline-fill="" data-darkreader-inline-stroke=""><tspan x="0 12.025 19.253 26.481001 33.709 37.310001 44.537998 51.765999 55.367001 59.695999 66.924004 70.525002 77.752998 81.353996 85.682999 89.283997 96.512001 100.113 107.341" y="0" id="tspan152">Week 16 (5/5 - 5/9)</tspan></text>
<text transform="translate(184,36.245117)" style="font-variant: normal; font-weight: bold; font-size: 13px; font-family: Arial; writing-mode: horizontal-tb; fill: rgb(0, 0, 0); fill-opacity: 1; fill-rule: nonzero; stroke: none; --darkreader-inline-fill: var(--darkreader-text-000000, #e8e6e3); --darkreader-inline-stroke: none;" id="text158" data-darkreader-inline-fill="" data-darkreader-inline-stroke=""><tspan x="0" y="0" id="tspan156">M</tspan></text>
<text transform="translate(210,36.245117)" style="font-variant: normal; font-weight: bold; font-size: 13px; font-family: Arial; writing-mode: horizontal-tb; fill: rgb(0, 0, 0); fill-opacity: 1; fill-rule: nonzero; stroke: none; --darkreader-inline-fill: var(--darkreader-text-000000, #e8e6e3); --darkreader-inline-stroke: none;" id="text162" data-darkreader-inline-fill="" data-darkreader-inline-stroke=""><tspan x="0" y="0" id="tspan160">T</tspan></text>
<text transform="translate(236,36.245117)" style="font-variant: normal; font-weight: bold; font-size: 13px; font-family: Arial; writing-mode: horizontal-tb; fill: rgb(0, 0, 0); fill-opacity: 1; fill-rule: nonzero; stroke: none; --darkreader-inline-fill: var(--darkreader-text-000000, #e8e6e3); --darkreader-inline-stroke: none;" id="text166" data-darkreader-inline-fill="" data-darkreader-inline-stroke=""><tspan x="0" y="0" id="tspan164">W</tspan></text>
<text transform="translate(262,36.245117)" style="font-variant: normal; font-weight: bold; font-size: 13px; font-family: Arial; writing-mode: horizontal-tb; fill: rgb(0, 0, 0); fill-opacity: 1; fill-rule: nonzero; stroke: none; --darkreader-inline-fill: var(--darkreader-text-000000, #e8e6e3); --darkreader-inline-stroke: none;" id="text170" data-darkreader-inline-fill="" data-darkreader-inline-stroke=""><tspan x="0" y="0" id="tspan168">T</tspan></text>
<text transform="translate(288,36.245117)" style="font-variant: normal; font-weight: bold; font-size: 13px; font-family: Arial; writing-mode: horizontal-tb; fill: rgb(0, 0, 0); fill-opacity: 1; fill-rule: nonzero; stroke: none; --darkreader-inline-fill: var(--darkreader-text-000000, #e8e6e3); --darkreader-inline-stroke: none;" id="text174" data-darkreader-inline-fill="" data-darkreader-inline-stroke=""><tspan x="0" y="0" id="tspan172">F</tspan></text>
<text transform="translate(314,36.245117)" style="font-variant: normal; font-weight: bold; font-size: 13px; font-family: Arial; writing-mode: horizontal-tb; fill: rgb(0, 0, 0); fill-opacity: 1; fill-rule: nonzero; stroke: none; --darkreader-inline-fill: var(--darkreader-text-000000, #e8e6e3); --darkreader-inline-stroke: none;" id="text178" data-darkreader-inline-fill="" data-darkreader-inline-stroke=""><tspan x="0" y="0" id="tspan176">M</tspan></text>
<text transform="translate(340,36.245117)" style="font-variant: normal; font-weight: bold; font-size: 13px; font-family: Arial; writing-mode: horizontal-tb; fill: rgb(0, 0, 0); fill-opacity: 1; fill-rule: nonzero; stroke: none; --darkreader-inline-fill: var(--darkreader-text-000000, #e8e6e3); --darkreader-inline-stroke: none;" id="text182" data-darkreader-inline-fill="" data-darkreader-inline-stroke=""><tspan x="0" y="0" id="tspan180">T</tspan></text>
<text transform="translate(366,36.245117)" style="font-variant: normal; font-weight: bold; font-size: 13px; font-family: Arial; writing-mode: horizontal-tb; fill: rgb(0, 0, 0); fill-opacity: 1; fill-rule: nonzero; stroke: none; --darkreader-inline-fill: var(--darkreader-text-000000, #e8e6e3); --darkreader-inline-stroke: none;" id="text186" data-darkreader-inline-fill="" data-darkreader-inline-stroke=""><tspan x="0" y="0" id="tspan184">W</tspan></text>
<text transform="translate(392,36.245117)" style="font-variant: normal; font-weight: bold; font-size: 13px; font-family: Arial; writing-mode: horizontal-tb; fill: rgb(0, 0, 0); fill-opacity: 1; fill-rule: nonzero; stroke: none; --darkreader-inline-fill: var(--darkreader-text-000000, #e8e6e3); --darkreader-inline-stroke: none;" id="text190" data-darkreader-inline-fill="" data-darkreader-inline-stroke=""><tspan x="0" y="0" id="tspan188">T</tspan></text>
<text transform="translate(418,36.245117)" style="font-variant: normal; font-weight: bold; font-size: 13px; font-family: Arial; writing-mode: horizontal-tb; fill: rgb(0, 0, 0); fill-opacity: 1; fill-rule: nonzero; stroke: none; --darkreader-inline-fill: var(--darkreader-text-000000, #e8e6e3); --darkreader-inline-stroke: none;" id="text194" data-darkreader-inline-fill="" data-darkreader-inline-stroke=""><tspan x="0" y="0" id="tspan192">F</tspan></text>
<text transform="translate(444,36.245117)" style="font-variant: normal; font-weight: bold; font-size: 13px; font-family: Arial; writing-mode: horizontal-tb; fill: rgb(0, 0, 0); fill-opacity: 1; fill-rule: nonzero; stroke: none; --darkreader-inline-fill: var(--darkreader-text-000000, #e8e6e3); --darkreader-inline-stroke: none;" id="text198" data-darkreader-inline-fill="" data-darkreader-inline-stroke=""><tspan x="0" y="0" id="tspan196">M</tspan></text>
<text transform="translate(470,36.245117)" style="font-variant: normal; font-weight: bold; font-size: 13px; font-family: Arial; writing-mode: horizontal-tb; fill: rgb(0, 0, 0); fill-opacity: 1; fill-rule: nonzero; stroke: none; --darkreader-inline-fill: var(--darkreader-text-000000, #e8e6e3); --darkreader-inline-stroke: none;" id="text202" data-darkreader-inline-fill="" data-darkreader-inline-stroke=""><tspan x="0" y="0" id="tspan200">T</tspan></text>
<text transform="translate(496,36.245117)" style="font-variant: normal; font-weight: bold; font-size: 13px; font-family: Arial; writing-mode: horizontal-tb; fill: rgb(0, 0, 0); fill-opacity: 1; fill-rule: nonzero; stroke: none; --darkreader-inline-fill: var(--darkreader-text-000000, #e8e6e3); --darkreader-inline-stroke: none;" id="text206" data-darkreader-inline-fill="" data-darkreader-inline-stroke=""><tspan x="0" y="0" id="tspan204">W</tspan></text>
<text transform="translate(522,36.245117)" style="font-variant: normal; font-weight: bold; font-size: 13px; font-family: Arial; writing-mode: horizontal-tb; fill: rgb(0, 0, 0); fill-opacity: 1; fill-rule: nonzero; stroke: none; --darkreader-inline-fill: var(--darkreader-text-000000, #e8e6e3); --darkreader-inline-stroke: none;" id="text210" data-darkreader-inline-fill="" data-darkreader-inline-stroke=""><tspan x="0" y="0" id="tspan208">T</tspan></text>
<text transform="translate(548,36.245117)" style="font-variant: normal; font-weight: bold; font-size: 13px; font-family: Arial; writing-mode: horizontal-tb; fill: rgb(0, 0, 0); fill-opacity: 1; fill-rule: nonzero; stroke: none; --darkreader-inline-fill: var(--darkreader-text-000000, #e8e6e3); --darkreader-inline-stroke: none;" id="text214" data-darkreader-inline-fill="" data-darkreader-inline-stroke=""><tspan x="0" y="0" id="tspan212">F</tspan></text>
<text transform="translate(575,36.245117)" style="font-variant: normal; font-weight: bold; font-size: 13px; font-family: Arial; writing-mode: horizontal-tb; fill: rgb(0, 0, 0); fill-opacity: 1; fill-rule: nonzero; stroke: none; --darkreader-inline-fill: var(--darkreader-text-000000, #e8e6e3); --darkreader-inline-stroke: none;" id="text218" data-darkreader-inline-fill="" data-darkreader-inline-stroke=""><tspan x="0" y="0" id="tspan216">M</tspan></text>
<text transform="translate(601,36.245117)" style="font-variant: normal; font-weight: bold; font-size: 13px; font-family: Arial; writing-mode: horizontal-tb; fill: rgb(0, 0, 0); fill-opacity: 1; fill-rule: nonzero; stroke: none; --darkreader-inline-fill: var(--darkreader-text-000000, #e8e6e3); --darkreader-inline-stroke: none;" id="text222" data-darkreader-inline-fill="" data-darkreader-inline-stroke=""><tspan x="0" y="0" id="tspan220">T</tspan></text>
<text transform="translate(627,36.245117)" style="font-variant: normal; font-weight: bold; font-size: 13px; font-family: Arial; writing-mode: horizontal-tb; fill: rgb(0, 0, 0); fill-opacity: 1; fill-rule: nonzero; stroke: none; --darkreader-inline-fill: var(--darkreader-text-000000, #e8e6e3); --darkreader-inline-stroke: none;" id="text226" data-darkreader-inline-fill="" data-darkreader-inline-stroke=""><tspan x="0" y="0" id="tspan224">W</tspan></text>
<text transform="translate(653,36.245117)" style="font-variant: normal; font-weight: bold; font-size: 13px; font-family: Arial; writing-mode: horizontal-tb; fill: rgb(0, 0, 0); fill-opacity: 1; fill-rule: nonzero; stroke: none; --darkreader-inline-fill: var(--darkreader-text-000000, #e8e6e3); --darkreader-inline-stroke: none;" id="text230" data-darkreader-inline-fill="" data-darkreader-inline-stroke=""><tspan x="0" y="0" id="tspan228">T</tspan></text>
<text transform="translate(679,36.245117)" style="font-variant: normal; font-weight: bold; font-size: 13px; font-family: Arial; writing-mode: horizontal-tb; fill: rgb(0, 0, 0); fill-opacity: 1; fill-rule: nonzero; stroke: none; --darkreader-inline-fill: var(--darkreader-text-000000, #e8e6e3); --darkreader-inline-stroke: none;" id="text234" data-darkreader-inline-fill="" data-darkreader-inline-stroke=""><tspan x="0" y="0" id="tspan232">F</tspan></text>
<text transform="translate(3,57.245117)" style="font-variant: normal; font-weight: bold; font-size: 13px; font-family: Arial; writing-mode: horizontal-tb; fill: rgb(0, 0, 0); fill-opacity: 1; fill-rule: nonzero; stroke: none; --darkreader-inline-fill: var(--darkreader-text-000000, #e8e6e3); --darkreader-inline-stroke: none;" id="text238" data-darkreader-inline-fill="" data-darkreader-inline-stroke=""><tspan x="0 10.101 17.329 22.386 29.614 37.543999 44.771999 48.373001 57.758999 61.360001 68.587997 75.816002 83.043999 86.644997 90.973999 101.803 109.031" y="0" id="tspan236">Garage Class (M1)</tspan></text>
<text transform="translate(3,78.24512)" style="font-variant: normal; font-weight: bold; font-size: 13px; font-family: Arial; writing-mode: horizontal-tb; fill: rgb(0, 0, 0); fill-opacity: 1; fill-rule: nonzero; stroke: none; --darkreader-inline-fill: var(--darkreader-text-000000, #e8e6e3); --darkreader-inline-stroke: none;" id="text242" data-darkreader-inline-fill="" data-darkreader-inline-stroke=""><tspan x="0 7.6960001 11.297 18.525 25.753 32.980999 37.310001 40.910999 50.297001 53.897999 61.125999 68.353996 75.582001 82.783997 87.112999 97.942001 105.17" y="0" id="tspan240">Ticket Class (M1)</tspan></text>
<text transform="translate(3,99.24512)" style="font-variant: normal; font-weight: bold; font-size: 13px; font-family: Arial; writing-mode: horizontal-tb; fill: rgb(0, 0, 0); fill-opacity: 1; fill-rule: nonzero; stroke: none; --darkreader-inline-fill: var(--darkreader-text-000000, #e8e6e3); --darkreader-inline-stroke: none;" id="text246" data-darkreader-inline-fill="" data-darkreader-inline-stroke=""><tspan x="0 9.3859997 16.614 23.841999 28.899 32.5 41.886002 45.487 52.715 59.943001 67.170998 74.399002 81.626999 85.227997 89.556999 100.386 107.614" y="0" id="tspan244">User Classes (M1)</tspan></text>
<text transform="translate(3,120.24512)" style="font-variant: normal; font-weight: bold; font-size: 13px; font-family: Arial; writing-mode: horizontal-tb; fill: rgb(0, 0, 0); fill-opacity: 1; fill-rule: nonzero; stroke: none; --darkreader-inline-fill: var(--darkreader-text-000000, #e8e6e3); --darkreader-inline-stroke: none;" id="text250" data-darkreader-inline-fill="" data-darkreader-inline-stroke=""><tspan x="0 9.3859997 16.614 23.841999 31.07 34.671001 42.601002 46.93 50.530998 58.110001 61.710999 71.097 78.324997 86.254997 94.184998 99.241997 103.571 107.172 111.501 122.33 129.558" y="0" id="tspan248">Receipt + Report (M1)</tspan></text>
<text transform="translate(3,141.24512)" style="font-variant: normal; font-weight: bold; font-size: 13px; font-family: Arial; writing-mode: horizontal-tb; fill: rgb(0, 0, 0); fill-opacity: 1; fill-rule: nonzero; stroke: none; --darkreader-inline-fill: var(--darkreader-text-000000, #e8e6e3); --darkreader-inline-stroke: none;" id="text254" data-darkreader-inline-fill="" data-darkreader-inline-stroke=""><tspan x="0 10.829 14.43 18.031 25.259001 32.487 36.816002 44.745998 52.675999 59.903999 63.505001 70.733002 74.334 81.302002 88.529999 95.758003 100.087 103.688 111.618" y="0" id="tspan252">Milestone 1 Testing</tspan></text>
<text transform="translate(353.94092,141.24512)" style="font-variant: normal; font-weight: bold; font-size: 13px; font-family: Arial; writing-mode: horizontal-tb; fill: rgb(0, 0, 0); fill-opacity: 1; fill-rule: nonzero; stroke: none; --darkreader-inline-fill: var(--darkreader-text-000000, #e8e6e3); --darkreader-inline-stroke: none;" id="text258" data-darkreader-inline-fill="" data-darkreader-inline-stroke=""><tspan x="0" y="0" id="tspan256">*</tspan></text>
<text transform="translate(3,162.24512)" style="font-variant: normal; font-weight: bold; font-size: 13px; font-family: Arial; writing-mode: horizontal-tb; fill: rgb(0, 0, 0); fill-opacity: 1; fill-rule: nonzero; stroke: none; --darkreader-inline-fill: var(--darkreader-text-000000, #e8e6e3); --darkreader-inline-stroke: none;" id="text262" data-darkreader-inline-fill="" data-darkreader-inline-stroke=""><tspan x="0 10.829 18.056999 25.285 32.513 39.741001 47.671001 54.898998 58.5 67.886002 71.487 78.714996 85.943001 93.170998 96.772003 101.101 111.93 119.158" y="0" id="tspan260">Message Class (M2)</tspan></text>
<text transform="translate(3,183.24512)" style="font-variant: normal; font-weight: bold; font-size: 13px; font-family: Arial; writing-mode: horizontal-tb; fill: rgb(0, 0, 0); fill-opacity: 1; fill-rule: nonzero; stroke: none; --darkreader-inline-fill: var(--darkreader-text-000000, #e8e6e3); --darkreader-inline-stroke: none;" id="text266" data-darkreader-inline-fill="" data-darkreader-inline-stroke=""><tspan x="0 8.658 15.886 20.943001 28.171 35.398998 40.456001 44.056999 53.443001 57.043999 64.272003 71.5 78.727997 82.329002 86.657997 97.487 104.715" y="0" id="tspan264">Server Class (M2)</tspan></text>
<text transform="translate(3,204.24512)" style="font-variant: normal; font-weight: bold; font-size: 13px; font-family: Arial; writing-mode: horizontal-tb; fill: rgb(0, 0, 0); fill-opacity: 1; fill-rule: nonzero; stroke: none; --darkreader-inline-fill: var(--darkreader-text-000000, #e8e6e3); --darkreader-inline-stroke: none;" id="text270" data-darkreader-inline-fill="" data-darkreader-inline-stroke=""><tspan x="0 9.3859997 12.987 16.587999 23.816 31.746 36.075001 45.460999 52.688999 60.618999 68.549004 72.150002 79.377998 84.434998 88.036003 97.421997 101.023 108.251 115.479 122.707 126.308 130.63699 141.466 148.694" y="0" id="tspan268">ClientHandler Class (M2)</tspan></text>
<text transform="translate(3,225.24512)" style="font-variant: normal; font-weight: bold; font-size: 13px; font-family: Arial; writing-mode: horizontal-tb; fill: rgb(0, 0, 0); fill-opacity: 1; fill-rule: nonzero; stroke: none; --darkreader-inline-fill: var(--darkreader-text-000000, #e8e6e3); --darkreader-inline-stroke: none;" id="text274" data-darkreader-inline-fill="" data-darkreader-inline-stroke=""><tspan x="0 10.829 14.43 18.031 25.259001 32.487 36.816002 44.745998 52.675999 59.903999 63.505001 70.733002 74.334 81.302002 88.529999 95.758003 100.087 103.688 111.618" y="0" id="tspan272">Milestone 2 Testing</tspan></text>
<text transform="translate(457.94092,225.24512)" style="font-variant: normal; font-weight: bold; font-size: 13px; font-family: Arial; writing-mode: horizontal-tb; fill: rgb(0, 0, 0); fill-opacity: 1; fill-rule: nonzero; stroke: none; --darkreader-inline-fill: var(--darkreader-text-000000, #e8e6e3); --darkreader-inline-stroke: none;" id="text278" data-darkreader-inline-fill="" data-darkreader-inline-stroke=""><tspan x="0" y="0" id="tspan276">*</tspan></text>
<text transform="translate(3,246.24512)" style="font-variant: normal; font-weight: bold; font-size: 13px; font-family: Arial; writing-mode: horizontal-tb; fill: rgb(0, 0, 0); fill-opacity: 1; fill-rule: nonzero; stroke: none; --darkreader-inline-fill: var(--darkreader-text-000000, #e8e6e3); --darkreader-inline-stroke: none;" id="text282" data-darkreader-inline-fill="" data-darkreader-inline-stroke=""><tspan x="0 9.3859997 17.316 24.544001 28.872999 36.803001 48.360001 55.588001 60.645 64.246002 74.347 83.733002 87.334 90.934998 95.264 106.093 113.321" y="0" id="tspan280">Customer GUI (M3)</tspan></text>
<text transform="translate(3,267.24512)" style="font-variant: normal; font-weight: bold; font-size: 13px; font-family: Arial; writing-mode: horizontal-tb; fill: rgb(0, 0, 0); fill-opacity: 1; fill-rule: nonzero; stroke: none; --darkreader-inline-fill: var(--darkreader-text-000000, #e8e6e3); --darkreader-inline-stroke: none;" id="text286" data-darkreader-inline-fill="" data-darkreader-inline-stroke=""><tspan x="0 8.658 20.215 28.145 31.746 39.675999 46.903999 54.132 61.360001 64.960999 75.061996 84.447998 88.049004 91.650002 95.978996 106.808 114.036" y="0" id="tspan284">Employee GUI (M3)</tspan></text>
<text transform="translate(3,288.24512)" style="font-variant: normal; font-weight: bold; font-size: 13px; font-family: Arial; writing-mode: horizontal-tb; fill: rgb(0, 0, 0); fill-opacity: 1; fill-rule: nonzero; stroke: none; --darkreader-inline-fill: var(--darkreader-text-000000, #e8e6e3); --darkreader-inline-stroke: none;" id="text290" data-darkreader-inline-fill="" data-darkreader-inline-stroke=""><tspan x="0 8.658 15.886 23.114 31.044001 36.101002 39.702 44.030998 51.258999 60.645 67.873001 79.43 86.657997 91.714996 98.943001 102.544 111.93 115.531 122.759 129.987 137.215 140.81599 145.145 153.80299" y="0" id="tspan288">SecurityCamera Class (E)</tspan></text>
<text transform="translate(3,309.24512)" style="font-variant: normal; font-weight: bold; font-size: 13px; font-family: Arial; writing-mode: horizontal-tb; fill: rgb(0, 0, 0); fill-opacity: 1; fill-rule: nonzero; stroke: none; --darkreader-inline-fill: var(--darkreader-text-000000, #e8e6e3); --darkreader-inline-stroke: none;" id="text294" data-darkreader-inline-fill="" data-darkreader-inline-stroke=""><tspan x="0 10.101 17.329 21.658001 28.886 32.487 41.873001 45.473999 52.702 59.93 67.157997 70.759003 75.087997 83.746002" y="0" id="tspan292">Gate Class (E)</tspan></text>
<text transform="translate(3,330.24512)" style="font-variant: normal; font-weight: bold; font-size: 13px; font-family: Arial; writing-mode: horizontal-tb; fill: rgb(0, 0, 0); fill-opacity: 1; fill-rule: nonzero; stroke: none; --darkreader-inline-fill: var(--darkreader-text-000000, #e8e6e3); --darkreader-inline-stroke: none;" id="text298" data-darkreader-inline-fill="" data-darkreader-inline-stroke=""><tspan x="0 10.829 14.43 18.031 25.259001 32.487 36.816002 44.745998 52.675999 59.903999 63.505001 70.733002 74.334 81.913002 85.514 93.444 97.044998 104.975 112.203 115.804 119.405 126.373 133.601 140.82899 145.158 148.759 156.689" y="0" id="tspan296">Milestone 3 + Final Testing</tspan></text>
<text transform="translate(640.9409,330.24512)" style="font-variant: normal; font-weight: bold; font-size: 13px; font-family: Arial; writing-mode: horizontal-tb; fill: rgb(0, 0, 0); fill-opacity: 1; fill-rule: nonzero; stroke: none; --darkreader-inline-fill: var(--darkreader-text-000000, #e8e6e3); --darkreader-inline-stroke: none;" id="text302" data-darkreader-inline-fill="" data-darkreader-inline-stroke=""><tspan x="0" y="0" id="tspan300">*</tspan></text>
</g></g></g></g></g></svg>