<?xml version="1.0" encoding="UTF-8" standalone="no"?>
<svg
   xmlns:dc="http://purl.org/dc/elements/1.1/"
   xmlns:cc="http://creativecommons.org/ns#"
   xmlns:rdf="http://www.w3.org/1999/02/22-rdf-syntax-ns#"
   xmlns:svg="http://www.w3.org/2000/svg"
   xmlns="http://www.w3.org/2000/svg"
   viewBox="0 0 1056 816"
   height="816"
   width="1056"
   xml:space="preserve"
   id="svg2"
   version="1.1"><metadata
     id="metadata8"><rdf:RDF><cc:Work
         rdf:about=""><dc:format>image/svg+xml</dc:format><dc:type
           rdf:resource="http://purl.org/dc/dcmitype/StillImage" /></cc:Work></rdf:RDF></metadata><defs
     id="defs6"><clipPath
       id="clipPath20"
       clipPathUnits="userSpaceOnUse"><path
         id="path18"
         d="M -2,-2 H 751 V 127 H -2 Z" /></clipPath><clipPath
       id="clipPath60"
       clipPathUnits="userSpaceOnUse"><path
         id="path58"
         d="M -2,-2 H 751 V 127 H -2 Z" /></clipPath><clipPath
       id="clipPath66"
       clipPathUnits="userSpaceOnUse"><path
         id="path64"
         d="M 229,0 H 358 V 20 H 229 Z" /></clipPath><clipPath
       id="clipPath80"
       clipPathUnits="userSpaceOnUse"><path
         id="path78"
         d="M -2,-2 H 751 V 127 H -2 Z" /></clipPath><clipPath
       id="clipPath86"
       clipPathUnits="userSpaceOnUse"><path
         id="path84"
         d="M 359,0 H 488 V 20 H 359 Z" /></clipPath><clipPath
       id="clipPath100"
       clipPathUnits="userSpaceOnUse"><path
         id="path98"
         d="M -2,-2 H 751 V 127 H -2 Z" /></clipPath></defs><g
     transform="matrix(1.3333333,0,0,-1.3333333,0,816)"
     id="g10"><g
       transform="matrix(1,0,0,-1,0,612)"
       id="g12"><g
         transform="matrix(0.75,0,0,0.75,115.125,54)"
         id="g14"><g
           clip-path="url(#clipPath20)"
           id="g16"><path
             id="path22"
             style="fill:#ffffff;fill-opacity:1;fill-rule:nonzero;stroke:none"
             d="M 0,0 H 750 V 42 H 0 Z" /><path
             id="path24"
             style="fill:#ffffff;fill-opacity:1;fill-rule:nonzero;stroke:none"
             d="m 0,42 h 229 v 84 H 0 Z" /><path
             id="path26"
             style="fill:#ffffff;fill-opacity:1;fill-rule:nonzero;stroke:none"
             d="M 411,42 H 750 V 63 H 411 Z" /><path
             id="path28"
             style="fill:#ffffff;fill-opacity:1;fill-rule:nonzero;stroke:none"
             d="m 229,63 h 130 v 63 H 229 Z" /><path
             id="path30"
             style="fill:#ffffff;fill-opacity:1;fill-rule:nonzero;stroke:none"
             d="M 515,63 H 750 V 84 H 515 Z" /><path
             id="path32"
             style="fill:#ffffff;fill-opacity:1;fill-rule:nonzero;stroke:none"
             d="m 359,84 h 130 v 42 H 359 Z" /><path
             id="path34"
             style="fill:#ffffff;fill-opacity:1;fill-rule:nonzero;stroke:none"
             d="m 646,84 h 104 v 21 H 646 Z" /><path
             id="path36"
             style="fill:#ffffff;fill-opacity:1;fill-rule:nonzero;stroke:none"
             d="m 489,105 h 104 v 21 H 489 Z" /><path
             id="path38"
             style="fill:#ffffff;fill-opacity:1;fill-rule:nonzero;stroke:none"
             d="m 698,105 h 52 v 21 h -52 z" /><path
             id="path40"
             style="fill:#ea9999;fill-opacity:1;fill-rule:nonzero;stroke:none"
             d="M 228,41 H 411 V 63 H 228 Z" /><path
             id="path42"
             style="fill:#ea9999;fill-opacity:1;fill-rule:nonzero;stroke:none"
             d="M 358,62 H 515 V 84 H 358 Z" /><path
             id="path44"
             style="fill:#ea9999;fill-opacity:1;fill-rule:nonzero;stroke:none"
             d="m 488,83 h 158 v 22 H 488 Z" /><path
             id="path46"
             style="fill:#ea9999;fill-opacity:1;fill-rule:nonzero;stroke:none"
             d="m 592,104 h 106 v 22 H 592 Z" /><g
             id="g48" /><path
             id="path50"
             style="fill:none;stroke:#000000;stroke-width:1;stroke-linecap:butt;stroke-linejoin:miter;stroke-miterlimit:10;stroke-dasharray:none;stroke-opacity:1"
             d="m -0.5,-1 v 127 m 229,-127 v 127 m 26,-106 v 22 m 0,20 v 64 m 26,-106 v 22 m 0,20 v 64 m 26,-106 v 22 m 0,20 v 64 m 26,-106 v 22 m 0,20 v 64 m 26,-127 v 43 m 0,20 v 64 m 26,-106 v 22 m 0,41 v 43 m 26,-106 v 43 m 0,20 v 43 m 26,-106 v 43 m 0,20 v 43 m 26,-106 v 43 m 0,20 v 43 m 26,-127 v 64 m 0,20 v 43 m 26,-106 v 64 m 0,20 v 22 m 26,-106 v 64 m 0,20 v 22 m 26,-106 v 64 m 0,20 v 22 m 26,-106 v 64 m 0,20 v 22 m 27,-127 v 85 m 26,-64 v 85 m 26,-85 v 85 m 26,-85 v 106 m 26,-106 V 126 M -1,-0.5 h 751 m -522,21 h 522 m -751,21 h 751 m -751,21 h 751 m -751,21 h 751 m -751,21 h 751 m -751,21 H 750 M 749.5,-1 v 127" /></g></g><g
         id="g52"><g
           transform="matrix(0.75,0,0,0.75,115.125,54)"
           id="g54"><g
             clip-path="url(#clipPath60)"
             id="g56"><g
               clip-path="url(#clipPath66)"
               id="g62"><text
                 id="text70"
                 style="font-variant:normal;font-weight:bold;font-size:13px;font-family:Arial;-inkscape-font-specification:Arial-BoldMT;writing-mode:lr-tb;fill:#000000;fill-opacity:1;fill-rule:nonzero;stroke:none"
                 transform="translate(232,15.245117)"><tspan
                   id="tspan68"
                   y="0"
                   x="0 12.025 19.253 26.481001 33.709 37.310001 44.537998 51.765999 55.367001 59.695999 66.924004 70.525002 77.752998 84.981003 88.582001 92.911003 96.512001 103.74 107.341 114.569 121.797">Week 13 (4/14 - 4/18)</tspan></text>
</g></g></g></g><g
         id="g72"><g
           transform="matrix(0.75,0,0,0.75,115.125,54)"
           id="g74"><g
             clip-path="url(#clipPath80)"
             id="g76"><g
               clip-path="url(#clipPath86)"
               id="g82"><text
                 id="text90"
                 style="font-variant:normal;font-weight:bold;font-size:13px;font-family:Arial;-inkscape-font-specification:Arial-BoldMT;writing-mode:lr-tb;fill:#000000;fill-opacity:1;fill-rule:nonzero;stroke:none"
                 transform="translate(362,15.245117)"><tspan
                   id="tspan88"
                   y="0"
                   x="0 12.025 19.253 26.481001 33.709 37.310001 44.537998 51.765999 55.367001 59.695999 66.924004 70.525002 77.752998 84.981003 88.582001 92.911003 96.512001 103.74 107.341 114.569 121.797">Week 14 (4/21 - 4/25)</tspan></text>
</g></g></g></g><g
         id="g92"><g
           transform="matrix(0.75,0,0,0.75,115.125,54)"
           id="g94"><g
             clip-path="url(#clipPath100)"
             id="g96"><text
               id="text104"
               style="font-variant:normal;font-weight:bold;font-size:13px;font-family:Arial;-inkscape-font-specification:Arial-BoldMT;writing-mode:lr-tb;fill:#000000;fill-opacity:1;fill-rule:nonzero;stroke:none"
               transform="translate(492,15.245117)"><tspan
                 id="tspan102"
                 y="0"
                 x="0 12.025 19.253 26.481001 33.709 37.310001 44.537998 51.765999 55.367001 59.695999 66.924004 70.525002 77.752998 84.981003 88.582001 92.911003 96.512001 103.74 107.341 114.569">Week 15 (4/28 - 5/2)</tspan></text>
<text
               id="text108"
               style="font-variant:normal;font-weight:bold;font-size:13px;font-family:Arial;-inkscape-font-specification:Arial-BoldMT;writing-mode:lr-tb;fill:#000000;fill-opacity:1;fill-rule:nonzero;stroke:none"
               transform="translate(623,15.245117)"><tspan
                 id="tspan106"
                 y="0"
                 x="0 12.025 19.253 26.481001 33.709 37.310001 44.537998 51.765999 55.367001 59.695999 66.924004 70.525002 77.752998 81.353996 85.682999 89.283997 96.512001 100.113 107.341">Week 16 (5/5 - 5/9)</tspan></text>
<text
               id="text112"
               style="font-variant:normal;font-weight:bold;font-size:13px;font-family:Arial;-inkscape-font-specification:Arial-BoldMT;writing-mode:lr-tb;fill:#000000;fill-opacity:1;fill-rule:nonzero;stroke:none"
               transform="translate(232,36.245117)"><tspan
                 id="tspan110"
                 y="0"
                 x="0">M</tspan></text>
<text
               id="text116"
               style="font-variant:normal;font-weight:bold;font-size:13px;font-family:Arial;-inkscape-font-specification:Arial-BoldMT;writing-mode:lr-tb;fill:#000000;fill-opacity:1;fill-rule:nonzero;stroke:none"
               transform="translate(258,36.245117)"><tspan
                 id="tspan114"
                 y="0"
                 x="0">T</tspan></text>
<text
               id="text120"
               style="font-variant:normal;font-weight:bold;font-size:13px;font-family:Arial;-inkscape-font-specification:Arial-BoldMT;writing-mode:lr-tb;fill:#000000;fill-opacity:1;fill-rule:nonzero;stroke:none"
               transform="translate(284,36.245117)"><tspan
                 id="tspan118"
                 y="0"
                 x="0">W</tspan></text>
<text
               id="text124"
               style="font-variant:normal;font-weight:bold;font-size:13px;font-family:Arial;-inkscape-font-specification:Arial-BoldMT;writing-mode:lr-tb;fill:#000000;fill-opacity:1;fill-rule:nonzero;stroke:none"
               transform="translate(310,36.245117)"><tspan
                 id="tspan122"
                 y="0"
                 x="0">T</tspan></text>
<text
               id="text128"
               style="font-variant:normal;font-weight:bold;font-size:13px;font-family:Arial;-inkscape-font-specification:Arial-BoldMT;writing-mode:lr-tb;fill:#000000;fill-opacity:1;fill-rule:nonzero;stroke:none"
               transform="translate(336,36.245117)"><tspan
                 id="tspan126"
                 y="0"
                 x="0">F</tspan></text>
<text
               id="text132"
               style="font-variant:normal;font-weight:bold;font-size:13px;font-family:Arial;-inkscape-font-specification:Arial-BoldMT;writing-mode:lr-tb;fill:#000000;fill-opacity:1;fill-rule:nonzero;stroke:none"
               transform="translate(362,36.245117)"><tspan
                 id="tspan130"
                 y="0"
                 x="0">M</tspan></text>
<text
               id="text136"
               style="font-variant:normal;font-weight:bold;font-size:13px;font-family:Arial;-inkscape-font-specification:Arial-BoldMT;writing-mode:lr-tb;fill:#000000;fill-opacity:1;fill-rule:nonzero;stroke:none"
               transform="translate(388,36.245117)"><tspan
                 id="tspan134"
                 y="0"
                 x="0">T</tspan></text>
<text
               id="text140"
               style="font-variant:normal;font-weight:bold;font-size:13px;font-family:Arial;-inkscape-font-specification:Arial-BoldMT;writing-mode:lr-tb;fill:#000000;fill-opacity:1;fill-rule:nonzero;stroke:none"
               transform="translate(414,36.245117)"><tspan
                 id="tspan138"
                 y="0"
                 x="0">W</tspan></text>
<text
               id="text144"
               style="font-variant:normal;font-weight:bold;font-size:13px;font-family:Arial;-inkscape-font-specification:Arial-BoldMT;writing-mode:lr-tb;fill:#000000;fill-opacity:1;fill-rule:nonzero;stroke:none"
               transform="translate(440,36.245117)"><tspan
                 id="tspan142"
                 y="0"
                 x="0">T</tspan></text>
<text
               id="text148"
               style="font-variant:normal;font-weight:bold;font-size:13px;font-family:Arial;-inkscape-font-specification:Arial-BoldMT;writing-mode:lr-tb;fill:#000000;fill-opacity:1;fill-rule:nonzero;stroke:none"
               transform="translate(466,36.245117)"><tspan
                 id="tspan146"
                 y="0"
                 x="0">F</tspan></text>
<text
               id="text152"
               style="font-variant:normal;font-weight:bold;font-size:13px;font-family:Arial;-inkscape-font-specification:Arial-BoldMT;writing-mode:lr-tb;fill:#000000;fill-opacity:1;fill-rule:nonzero;stroke:none"
               transform="translate(492,36.245117)"><tspan
                 id="tspan150"
                 y="0"
                 x="0">M</tspan></text>
<text
               id="text156"
               style="font-variant:normal;font-weight:bold;font-size:13px;font-family:Arial;-inkscape-font-specification:Arial-BoldMT;writing-mode:lr-tb;fill:#000000;fill-opacity:1;fill-rule:nonzero;stroke:none"
               transform="translate(518,36.245117)"><tspan
                 id="tspan154"
                 y="0"
                 x="0">T</tspan></text>
<text
               id="text160"
               style="font-variant:normal;font-weight:bold;font-size:13px;font-family:Arial;-inkscape-font-specification:Arial-BoldMT;writing-mode:lr-tb;fill:#000000;fill-opacity:1;fill-rule:nonzero;stroke:none"
               transform="translate(544,36.245117)"><tspan
                 id="tspan158"
                 y="0"
                 x="0">W</tspan></text>
<text
               id="text164"
               style="font-variant:normal;font-weight:bold;font-size:13px;font-family:Arial;-inkscape-font-specification:Arial-BoldMT;writing-mode:lr-tb;fill:#000000;fill-opacity:1;fill-rule:nonzero;stroke:none"
               transform="translate(570,36.245117)"><tspan
                 id="tspan162"
                 y="0"
                 x="0">T</tspan></text>
<text
               id="text168"
               style="font-variant:normal;font-weight:bold;font-size:13px;font-family:Arial;-inkscape-font-specification:Arial-BoldMT;writing-mode:lr-tb;fill:#000000;fill-opacity:1;fill-rule:nonzero;stroke:none"
               transform="translate(596,36.245117)"><tspan
                 id="tspan166"
                 y="0"
                 x="0">F</tspan></text>
<text
               id="text172"
               style="font-variant:normal;font-weight:bold;font-size:13px;font-family:Arial;-inkscape-font-specification:Arial-BoldMT;writing-mode:lr-tb;fill:#000000;fill-opacity:1;fill-rule:nonzero;stroke:none"
               transform="translate(623,36.245117)"><tspan
                 id="tspan170"
                 y="0"
                 x="0">M</tspan></text>
<text
               id="text176"
               style="font-variant:normal;font-weight:bold;font-size:13px;font-family:Arial;-inkscape-font-specification:Arial-BoldMT;writing-mode:lr-tb;fill:#000000;fill-opacity:1;fill-rule:nonzero;stroke:none"
               transform="translate(649,36.245117)"><tspan
                 id="tspan174"
                 y="0"
                 x="0">T</tspan></text>
<text
               id="text180"
               style="font-variant:normal;font-weight:bold;font-size:13px;font-family:Arial;-inkscape-font-specification:Arial-BoldMT;writing-mode:lr-tb;fill:#000000;fill-opacity:1;fill-rule:nonzero;stroke:none"
               transform="translate(675,36.245117)"><tspan
                 id="tspan178"
                 y="0"
                 x="0">W</tspan></text>
<text
               id="text184"
               style="font-variant:normal;font-weight:bold;font-size:13px;font-family:Arial;-inkscape-font-specification:Arial-BoldMT;writing-mode:lr-tb;fill:#000000;fill-opacity:1;fill-rule:nonzero;stroke:none"
               transform="translate(701,36.245117)"><tspan
                 id="tspan182"
                 y="0"
                 x="0">T</tspan></text>
<text
               id="text188"
               style="font-variant:normal;font-weight:bold;font-size:13px;font-family:Arial;-inkscape-font-specification:Arial-BoldMT;writing-mode:lr-tb;fill:#000000;fill-opacity:1;fill-rule:nonzero;stroke:none"
               transform="translate(727,36.245117)"><tspan
                 id="tspan186"
                 y="0"
                 x="0">F</tspan></text>
<text
               id="text192"
               style="font-variant:normal;font-weight:bold;font-size:13px;font-family:Arial;-inkscape-font-specification:Arial-BoldMT;writing-mode:lr-tb;fill:#000000;fill-opacity:1;fill-rule:nonzero;stroke:none"
               transform="translate(3,57.245117)"><tspan
                 id="tspan190"
                 y="0"
                 x="0 10.829 14.43 18.031 25.259001 32.487 36.816002 44.745998 52.675999 59.903999 63.505001 70.733002 75.061996 78.663002 88.049004 95.978996 101.036 108.264 111.865 121.251 129.181 140.73801 148.668 156.59801 164.528 171.756 179.686 184.015">Milestone 1: Core Components</tspan></text>
<text
               id="text196"
               style="font-variant:normal;font-weight:bold;font-size:13px;font-family:Arial;-inkscape-font-specification:Arial-BoldMT;writing-mode:lr-tb;fill:#000000;fill-opacity:1;fill-rule:nonzero;stroke:none"
               transform="translate(3,78.24512)"><tspan
                 id="tspan194"
                 y="0"
                 x="0 10.829 14.43 18.031 25.259001 32.487 36.816002 44.745998 52.675999 59.903999 63.505001 70.733002 75.061996 78.663002 87.320999 94.549004 99.606003 106.834 114.062 119.119 122.72 129.948 137.87801 145.808 149.409 160.23801 167.466 174.694 181.922 189.14999 197.08 204.308">Milestone 2: Server and Messages</tspan></text>
<text
               id="text200"
               style="font-variant:normal;font-weight:bold;font-size:13px;font-family:Arial;-inkscape-font-specification:Arial-BoldMT;writing-mode:lr-tb;fill:#000000;fill-opacity:1;fill-rule:nonzero;stroke:none"
               transform="translate(3,99.24512)"><tspan
                 id="tspan198"
                 y="0"
                 x="0 10.829 14.43 18.031 25.259001 32.487 36.816002 44.745998 52.675999 59.903999 63.505001 70.733002 75.061996 78.663002 88.764 98.150002 101.751">Milestone 3: GUIs</tspan></text>
<text
               id="text204"
               style="font-variant:normal;font-weight:bold;font-size:13px;font-family:Arial;-inkscape-font-specification:Arial-BoldMT;writing-mode:lr-tb;fill:#000000;fill-opacity:1;fill-rule:nonzero;stroke:none"
               transform="translate(3,120.24512)"><tspan
                 id="tspan202"
                 y="0"
                 x="0 7.9299998 11.531 19.461 26.688999 30.290001 33.890999 42.549 50.479 54.080002 57.681 64.908997 72.838997 76.440002 83.667999 91.598 99.528 102.648 112.034 119.964 127.894 131.495 135.82401 139.425 147.355 155.285">Final Polish and Additions</tspan></text>
</g></g></g></g></g></svg>