<svg version="1.1" id="svg2" xml:space="preserve" viewBox="151.78979907264298 70.17599999999999 752.4204018547141 130.56" xmlns="http://www.w3.org/2000/svg" style="max-height: 500px" width="752.4204018547141" height="130.56"><metadata id="metadata8">image/svg+xml</metadata><defs id="defs6"><clipPath clipPathUnits="userSpaceOnUse" id="clipPath20"><path d="M -2,-2 H 751 V 127 H -2 Z" id="path18"/></clipPath><clipPath clipPathUnits="userSpaceOnUse" id="clipPath60"><path d="M -2,-2 H 751 V 127 H -2 Z" id="path58"/></clipPath><clipPath clipPathUnits="userSpaceOnUse" id="clipPath66"><path d="M 229,0 H 358 V 20 H 229 Z" id="path64"/></clipPath><clipPath clipPathUnits="userSpaceOnUse" id="clipPath80"><path d="M -2,-2 H 751 V 127 H -2 Z" id="path78"/></clipPath><clipPath clipPathUnits="userSpaceOnUse" id="clipPath86"><path d="M 359,0 H 488 V 20 H 359 Z" id="path84"/></clipPath><clipPath clipPathUnits="userSpaceOnUse" id="clipPath100"><path d="M -2,-2 H 751 V 127 H -2 Z" id="path98"/></clipPath></defs><g id="g10" transform="matrix(1.3333333,0,0,-1.3333333,0,816)"><g id="g12" transform="matrix(1,0,0,-1,0,612)"><g id="g14" transform="matrix(0.75,0,0,0.75,115.125,54)"><g id="g16" clip-path="url(#clipPath20)"><path d="M 0,0 H 750 V 42 H 0 Z" style="fill: rgb(255, 255, 255); fill-opacity: 1; fill-rule: nonzero; stroke: none; --darkreader-inline-fill: var(--darkreader-text-ffffff, #e8e6e3); --darkreader-inline-stroke: none;" id="path22" data-darkreader-inline-fill="" data-darkreader-inline-stroke=""/><path d="m 0,42 h 229 v 84 H 0 Z" style="fill: rgb(255, 255, 255); fill-opacity: 1; fill-rule: nonzero; stroke: none; --darkreader-inline-fill: var(--darkreader-text-ffffff, #e8e6e3); --darkreader-inline-stroke: none;" id="path24" data-darkreader-inline-fill="" data-darkreader-inline-stroke=""/><path d="M 411,42 H 750 V 63 H 411 Z" style="fill: rgb(255, 255, 255); fill-opacity: 1; fill-rule: nonzero; stroke: none; --darkreader-inline-fill: var(--darkreader-text-ffffff, #e8e6e3); --darkreader-inline-stroke: none;" id="path26" data-darkreader-inline-fill="" data-darkreader-inline-stroke=""/><path d="m 229,63 h 130 v 63 H 229 Z" style="fill: rgb(255, 255, 255); fill-opacity: 1; fill-rule: nonzero; stroke: none; --darkreader-inline-fill: var(--darkreader-text-ffffff, #e8e6e3); --darkreader-inline-stroke: none;" id="path28" data-darkreader-inline-fill="" data-darkreader-inline-stroke=""/><path d="M 515,63 H 750 V 84 H 515 Z" style="fill: rgb(255, 255, 255); fill-opacity: 1; fill-rule: nonzero; stroke: none; --darkreader-inline-fill: var(--darkreader-text-ffffff, #e8e6e3); --darkreader-inline-stroke: none;" id="path30" data-darkreader-inline-fill="" data-darkreader-inline-stroke=""/><path d="m 359,84 h 104 v 42 H 359 Z" style="fill: rgb(255, 255, 255); fill-opacity: 1; fill-rule: nonzero; stroke: none; --darkreader-inline-fill: var(--darkreader-text-ffffff, #e8e6e3); --darkreader-inline-stroke: none;" id="path32" data-darkreader-inline-fill="" data-darkreader-inline-stroke=""/><path d="m 646,84 h 104 v 21 H 646 Z" style="fill: rgb(255, 255, 255); fill-opacity: 1; fill-rule: nonzero; stroke: none; --darkreader-inline-fill: var(--darkreader-text-ffffff, #e8e6e3); --darkreader-inline-stroke: none;" id="path34" data-darkreader-inline-fill="" data-darkreader-inline-stroke=""/><path d="m 463,105 h 130 v 21 H 463 Z" style="fill: rgb(255, 255, 255); fill-opacity: 1; fill-rule: nonzero; stroke: none; --darkreader-inline-fill: var(--darkreader-text-ffffff, #e8e6e3); --darkreader-inline-stroke: none;" id="path36" data-darkreader-inline-fill="" data-darkreader-inline-stroke=""/><path d="m 698,105 h 52 v 21 h -52 z" style="fill: rgb(255, 255, 255); fill-opacity: 1; fill-rule: nonzero; stroke: none; --darkreader-inline-fill: var(--darkreader-text-ffffff, #e8e6e3); --darkreader-inline-stroke: none;" id="path38" data-darkreader-inline-fill="" data-darkreader-inline-stroke=""/><path d="M 228,41 H 411 V 63 H 228 Z" style="fill: rgb(234, 153, 153); fill-opacity: 1; fill-rule: nonzero; stroke: none; --darkreader-inline-fill: var(--darkreader-text-ea9999, #e88d8d); --darkreader-inline-stroke: none;" id="path40" data-darkreader-inline-fill="" data-darkreader-inline-stroke=""/><path d="M 358,62 H 515 V 84 H 358 Z" style="fill: rgb(234, 153, 153); fill-opacity: 1; fill-rule: nonzero; stroke: none; --darkreader-inline-fill: var(--darkreader-text-ea9999, #e88d8d); --darkreader-inline-stroke: none;" id="path42" data-darkreader-inline-fill="" data-darkreader-inline-stroke=""/><path d="m 462,83 h 184 v 22 H 462 Z" style="fill: rgb(234, 153, 153); fill-opacity: 1; fill-rule: nonzero; stroke: none; --darkreader-inline-fill: var(--darkreader-text-ea9999, #e88d8d); --darkreader-inline-stroke: none;" id="path44" data-darkreader-inline-fill="" data-darkreader-inline-stroke=""/><path d="m 592,104 h 106 v 22 H 592 Z" style="fill: rgb(234, 153, 153); fill-opacity: 1; fill-rule: nonzero; stroke: none; --darkreader-inline-fill: var(--darkreader-text-ea9999, #e88d8d); --darkreader-inline-stroke: none;" id="path46" data-darkreader-inline-fill="" data-darkreader-inline-stroke=""/><g id="g48"/><path d="m -0.5,-1 v 127 m 229,-127 v 127 m 26,-106 v 22 m 0,20 v 64 m 26,-106 v 22 m 0,20 v 64 m 26,-106 v 22 m 0,20 v 64 m 26,-106 v 22 m 0,20 v 64 m 26,-127 v 43 m 0,20 v 64 m 26,-106 v 22 m 0,41 v 43 m 26,-106 v 43 m 0,20 v 43 m 26,-106 v 43 m 0,20 v 43 m 26,-106 v 43 m 0,20 v 43 m 26,-127 v 64 m 0,41 v 22 m 26,-106 v 64 m 0,20 v 22 m 26,-106 v 64 m 0,20 v 22 m 26,-106 v 64 m 0,20 v 22 m 26,-106 v 64 m 0,20 v 22 m 27,-127 v 85 m 26,-64 v 85 m 26,-85 v 85 m 26,-85 v 106 m 26,-106 V 126 M -1,-0.5 h 751 m -522,21 h 522 m -751,21 h 751 m -751,21 h 751 m -751,21 h 751 m -751,21 h 751 m -751,21 H 750 M 749.5,-1 v 127" style="fill: none; stroke: rgb(0, 0, 0); stroke-width: 1px; stroke-linecap: butt; stroke-linejoin: miter; stroke-miterlimit: 10; stroke-dasharray: none; stroke-opacity: 1; --darkreader-inline-fill: none; --darkreader-inline-stroke: var(--darkreader-text-000000, #e8e6e3);" id="path50" data-darkreader-inline-fill="" data-darkreader-inline-stroke=""/></g></g><g id="g52"><g id="g54" transform="matrix(0.75,0,0,0.75,115.125,54)"><g id="g56" clip-path="url(#clipPath60)"><g id="g62" clip-path="url(#clipPath66)"><text transform="translate(232,15.245117)" style="font-variant: normal; font-weight: bold; font-size: 13px; font-family: Arial; writing-mode: horizontal-tb; fill: rgb(0, 0, 0); fill-opacity: 1; fill-rule: nonzero; stroke: none; --darkreader-inline-fill: var(--darkreader-text-000000, #e8e6e3); --darkreader-inline-stroke: none;" id="text70" data-darkreader-inline-fill="" data-darkreader-inline-stroke=""><tspan x="0 12.025 19.253 26.481001 33.709 37.310001 44.537998 51.765999 55.367001 59.695999 66.924004 70.525002 77.752998 84.981003 88.582001 92.911003 96.512001 103.74 107.341 114.569 121.797" y="0" id="tspan68">Week 13 (4/14 - 4/18)</tspan></text>
</g></g></g></g><g id="g72"><g id="g74" transform="matrix(0.75,0,0,0.75,115.125,54)"><g id="g76" clip-path="url(#clipPath80)"><g id="g82" clip-path="url(#clipPath86)"><text transform="translate(362,15.245117)" style="font-variant: normal; font-weight: bold; font-size: 13px; font-family: Arial; writing-mode: horizontal-tb; fill: rgb(0, 0, 0); fill-opacity: 1; fill-rule: nonzero; stroke: none; --darkreader-inline-fill: var(--darkreader-text-000000, #e8e6e3); --darkreader-inline-stroke: none;" id="text90" data-darkreader-inline-fill="" data-darkreader-inline-stroke=""><tspan x="0 12.025 19.253 26.481001 33.709 37.310001 44.537998 51.765999 55.367001 59.695999 66.924004 70.525002 77.752998 84.981003 88.582001 92.911003 96.512001 103.74 107.341 114.569 121.797" y="0" id="tspan88">Week 14 (4/21 - 4/25)</tspan></text>
</g></g></g></g><g id="g92"><g id="g94" transform="matrix(0.75,0,0,0.75,115.125,54)"><g id="g96" clip-path="url(#clipPath100)"><text transform="translate(492,15.245117)" style="font-variant: normal; font-weight: bold; font-size: 13px; font-family: Arial; writing-mode: horizontal-tb; fill: rgb(0, 0, 0); fill-opacity: 1; fill-rule: nonzero; stroke: none; --darkreader-inline-fill: var(--darkreader-text-000000, #e8e6e3); --darkreader-inline-stroke: none;" id="text104" data-darkreader-inline-fill="" data-darkreader-inline-stroke=""><tspan x="0 12.025 19.253 26.481001 33.709 37.310001 44.537998 51.765999 55.367001 59.695999 66.924004 70.525002 77.752998 84.981003 88.582001 92.911003 96.512001 103.74 107.341 114.569" y="0" id="tspan102">Week 15 (4/28 - 5/2)</tspan></text>
<text transform="translate(623,15.245117)" style="font-variant: normal; font-weight: bold; font-size: 13px; font-family: Arial; writing-mode: horizontal-tb; fill: rgb(0, 0, 0); fill-opacity: 1; fill-rule: nonzero; stroke: none; --darkreader-inline-fill: var(--darkreader-text-000000, #e8e6e3); --darkreader-inline-stroke: none;" id="text108" data-darkreader-inline-fill="" data-darkreader-inline-stroke=""><tspan x="0 12.025 19.253 26.481001 33.709 37.310001 44.537998 51.765999 55.367001 59.695999 66.924004 70.525002 77.752998 81.353996 85.682999 89.283997 96.512001 100.113 107.341" y="0" id="tspan106">Week 16 (5/5 - 5/9)</tspan></text>
<text transform="translate(232,36.245117)" style="font-variant: normal; font-weight: bold; font-size: 13px; font-family: Arial; writing-mode: horizontal-tb; fill: rgb(0, 0, 0); fill-opacity: 1; fill-rule: nonzero; stroke: none; --darkreader-inline-fill: var(--darkreader-text-000000, #e8e6e3); --darkreader-inline-stroke: none;" id="text112" data-darkreader-inline-fill="" data-darkreader-inline-stroke=""><tspan x="0" y="0" id="tspan110">M</tspan></text>
<text transform="translate(258,36.245117)" style="font-variant: normal; font-weight: bold; font-size: 13px; font-family: Arial; writing-mode: horizontal-tb; fill: rgb(0, 0, 0); fill-opacity: 1; fill-rule: nonzero; stroke: none; --darkreader-inline-fill: var(--darkreader-text-000000, #e8e6e3); --darkreader-inline-stroke: none;" id="text116" data-darkreader-inline-fill="" data-darkreader-inline-stroke=""><tspan x="0" y="0" id="tspan114">T</tspan></text>
<text transform="translate(284,36.245117)" style="font-variant: normal; font-weight: bold; font-size: 13px; font-family: Arial; writing-mode: horizontal-tb; fill: rgb(0, 0, 0); fill-opacity: 1; fill-rule: nonzero; stroke: none; --darkreader-inline-fill: var(--darkreader-text-000000, #e8e6e3); --darkreader-inline-stroke: none;" id="text120" data-darkreader-inline-fill="" data-darkreader-inline-stroke=""><tspan x="0" y="0" id="tspan118">W</tspan></text>
<text transform="translate(310,36.245117)" style="font-variant: normal; font-weight: bold; font-size: 13px; font-family: Arial; writing-mode: horizontal-tb; fill: rgb(0, 0, 0); fill-opacity: 1; fill-rule: nonzero; stroke: none; --darkreader-inline-fill: var(--darkreader-text-000000, #e8e6e3); --darkreader-inline-stroke: none;" id="text124" data-darkreader-inline-fill="" data-darkreader-inline-stroke=""><tspan x="0" y="0" id="tspan122">T</tspan></text>
<text transform="translate(336,36.245117)" style="font-variant: normal; font-weight: bold; font-size: 13px; font-family: Arial; writing-mode: horizontal-tb; fill: rgb(0, 0, 0); fill-opacity: 1; fill-rule: nonzero; stroke: none; --darkreader-inline-fill: var(--darkreader-text-000000, #e8e6e3); --darkreader-inline-stroke: none;" id="text128" data-darkreader-inline-fill="" data-darkreader-inline-stroke=""><tspan x="0" y="0" id="tspan126">F</tspan></text>
<text transform="translate(362,36.245117)" style="font-variant: normal; font-weight: bold; font-size: 13px; font-family: Arial; writing-mode: horizontal-tb; fill: rgb(0, 0, 0); fill-opacity: 1; fill-rule: nonzero; stroke: none; --darkreader-inline-fill: var(--darkreader-text-000000, #e8e6e3); --darkreader-inline-stroke: none;" id="text132" data-darkreader-inline-fill="" data-darkreader-inline-stroke=""><tspan x="0" y="0" id="tspan130">M</tspan></text>
<text transform="translate(388,36.245117)" style="font-variant: normal; font-weight: bold; font-size: 13px; font-family: Arial; writing-mode: horizontal-tb; fill: rgb(0, 0, 0); fill-opacity: 1; fill-rule: nonzero; stroke: none; --darkreader-inline-fill: var(--darkreader-text-000000, #e8e6e3); --darkreader-inline-stroke: none;" id="text136" data-darkreader-inline-fill="" data-darkreader-inline-stroke=""><tspan x="0" y="0" id="tspan134">T</tspan></text>
<text transform="translate(414,36.245117)" style="font-variant: normal; font-weight: bold; font-size: 13px; font-family: Arial; writing-mode: horizontal-tb; fill: rgb(0, 0, 0); fill-opacity: 1; fill-rule: nonzero; stroke: none; --darkreader-inline-fill: var(--darkreader-text-000000, #e8e6e3); --darkreader-inline-stroke: none;" id="text140" data-darkreader-inline-fill="" data-darkreader-inline-stroke=""><tspan x="0" y="0" id="tspan138">W</tspan></text>
<text transform="translate(440,36.245117)" style="font-variant: normal; font-weight: bold; font-size: 13px; font-family: Arial; writing-mode: horizontal-tb; fill: rgb(0, 0, 0); fill-opacity: 1; fill-rule: nonzero; stroke: none; --darkreader-inline-fill: var(--darkreader-text-000000, #e8e6e3); --darkreader-inline-stroke: none;" id="text144" data-darkreader-inline-fill="" data-darkreader-inline-stroke=""><tspan x="0" y="0" id="tspan142">T</tspan></text>
<text transform="translate(466,36.245117)" style="font-variant: normal; font-weight: bold; font-size: 13px; font-family: Arial; writing-mode: horizontal-tb; fill: rgb(0, 0, 0); fill-opacity: 1; fill-rule: nonzero; stroke: none; --darkreader-inline-fill: var(--darkreader-text-000000, #e8e6e3); --darkreader-inline-stroke: none;" id="text148" data-darkreader-inline-fill="" data-darkreader-inline-stroke=""><tspan x="0" y="0" id="tspan146">F</tspan></text>
<text transform="translate(492,36.245117)" style="font-variant: normal; font-weight: bold; font-size: 13px; font-family: Arial; writing-mode: horizontal-tb; fill: rgb(0, 0, 0); fill-opacity: 1; fill-rule: nonzero; stroke: none; --darkreader-inline-fill: var(--darkreader-text-000000, #e8e6e3); --darkreader-inline-stroke: none;" id="text152" data-darkreader-inline-fill="" data-darkreader-inline-stroke=""><tspan x="0" y="0" id="tspan150">M</tspan></text>
<text transform="translate(518,36.245117)" style="font-variant: normal; font-weight: bold; font-size: 13px; font-family: Arial; writing-mode: horizontal-tb; fill: rgb(0, 0, 0); fill-opacity: 1; fill-rule: nonzero; stroke: none; --darkreader-inline-fill: var(--darkreader-text-000000, #e8e6e3); --darkreader-inline-stroke: none;" id="text156" data-darkreader-inline-fill="" data-darkreader-inline-stroke=""><tspan x="0" y="0" id="tspan154">T</tspan></text>
<text transform="translate(544,36.245117)" style="font-variant: normal; font-weight: bold; font-size: 13px; font-family: Arial; writing-mode: horizontal-tb; fill: rgb(0, 0, 0); fill-opacity: 1; fill-rule: nonzero; stroke: none; --darkreader-inline-fill: var(--darkreader-text-000000, #e8e6e3); --darkreader-inline-stroke: none;" id="text160" data-darkreader-inline-fill="" data-darkreader-inline-stroke=""><tspan x="0" y="0" id="tspan158">W</tspan></text>
<text transform="translate(570,36.245117)" style="font-variant: normal; font-weight: bold; font-size: 13px; font-family: Arial; writing-mode: horizontal-tb; fill: rgb(0, 0, 0); fill-opacity: 1; fill-rule: nonzero; stroke: none; --darkreader-inline-fill: var(--darkreader-text-000000, #e8e6e3); --darkreader-inline-stroke: none;" id="text164" data-darkreader-inline-fill="" data-darkreader-inline-stroke=""><tspan x="0" y="0" id="tspan162">T</tspan></text>
<text transform="translate(596,36.245117)" style="font-variant: normal; font-weight: bold; font-size: 13px; font-family: Arial; writing-mode: horizontal-tb; fill: rgb(0, 0, 0); fill-opacity: 1; fill-rule: nonzero; stroke: none; --darkreader-inline-fill: var(--darkreader-text-000000, #e8e6e3); --darkreader-inline-stroke: none;" id="text168" data-darkreader-inline-fill="" data-darkreader-inline-stroke=""><tspan x="0" y="0" id="tspan166">F</tspan></text>
<text transform="translate(623,36.245117)" style="font-variant: normal; font-weight: bold; font-size: 13px; font-family: Arial; writing-mode: horizontal-tb; fill: rgb(0, 0, 0); fill-opacity: 1; fill-rule: nonzero; stroke: none; --darkreader-inline-fill: var(--darkreader-text-000000, #e8e6e3); --darkreader-inline-stroke: none;" id="text172" data-darkreader-inline-fill="" data-darkreader-inline-stroke=""><tspan x="0" y="0" id="tspan170">M</tspan></text>
<text transform="translate(649,36.245117)" style="font-variant: normal; font-weight: bold; font-size: 13px; font-family: Arial; writing-mode: horizontal-tb; fill: rgb(0, 0, 0); fill-opacity: 1; fill-rule: nonzero; stroke: none; --darkreader-inline-fill: var(--darkreader-text-000000, #e8e6e3); --darkreader-inline-stroke: none;" id="text176" data-darkreader-inline-fill="" data-darkreader-inline-stroke=""><tspan x="0" y="0" id="tspan174">T</tspan></text>
<text transform="translate(675,36.245117)" style="font-variant: normal; font-weight: bold; font-size: 13px; font-family: Arial; writing-mode: horizontal-tb; fill: rgb(0, 0, 0); fill-opacity: 1; fill-rule: nonzero; stroke: none; --darkreader-inline-fill: var(--darkreader-text-000000, #e8e6e3); --darkreader-inline-stroke: none;" id="text180" data-darkreader-inline-fill="" data-darkreader-inline-stroke=""><tspan x="0" y="0" id="tspan178">W</tspan></text>
<text transform="translate(701,36.245117)" style="font-variant: normal; font-weight: bold; font-size: 13px; font-family: Arial; writing-mode: horizontal-tb; fill: rgb(0, 0, 0); fill-opacity: 1; fill-rule: nonzero; stroke: none; --darkreader-inline-fill: var(--darkreader-text-000000, #e8e6e3); --darkreader-inline-stroke: none;" id="text184" data-darkreader-inline-fill="" data-darkreader-inline-stroke=""><tspan x="0" y="0" id="tspan182">T</tspan></text>
<text transform="translate(727,36.245117)" style="font-variant: normal; font-weight: bold; font-size: 13px; font-family: Arial; writing-mode: horizontal-tb; fill: rgb(0, 0, 0); fill-opacity: 1; fill-rule: nonzero; stroke: none; --darkreader-inline-fill: var(--darkreader-text-000000, #e8e6e3); --darkreader-inline-stroke: none;" id="text188" data-darkreader-inline-fill="" data-darkreader-inline-stroke=""><tspan x="0" y="0" id="tspan186">F</tspan></text>
<text transform="translate(3,57.245117)" style="font-variant: normal; font-weight: bold; font-size: 13px; font-family: Arial; writing-mode: horizontal-tb; fill: rgb(0, 0, 0); fill-opacity: 1; fill-rule: nonzero; stroke: none; --darkreader-inline-fill: var(--darkreader-text-000000, #e8e6e3); --darkreader-inline-stroke: none;" id="text192" data-darkreader-inline-fill="" data-darkreader-inline-stroke=""><tspan x="0 10.829 14.43 18.031 25.259001 32.487 36.816002 44.745998 52.675999 59.903999 63.505001 70.733002 75.061996 78.663002 88.049004 95.978996 101.036 108.264 111.865 121.251 129.181 140.73801 148.668 156.59801 164.528 171.756 179.686 184.015" y="0" id="tspan190">Milestone 1: Core Components</tspan></text>
<text transform="translate(3,78.24512)" style="font-variant: normal; font-weight: bold; font-size: 13px; font-family: Arial; writing-mode: horizontal-tb; fill: rgb(0, 0, 0); fill-opacity: 1; fill-rule: nonzero; stroke: none; --darkreader-inline-fill: var(--darkreader-text-000000, #e8e6e3); --darkreader-inline-stroke: none;" id="text196" data-darkreader-inline-fill="" data-darkreader-inline-stroke=""><tspan x="0 10.829 14.43 18.031 25.259001 32.487 36.816002 44.745998 52.675999 59.903999 63.505001 70.733002 75.061996 78.663002 87.320999 94.549004 99.606003 106.834 114.062 119.119 122.72 129.948 137.87801 145.808 149.409 160.23801 167.466 174.694 181.922 189.14999 197.08 204.308" y="0" id="tspan194">Milestone 2: Server and Messages</tspan></text>
<text transform="translate(3,99.24512)" style="font-variant: normal; font-weight: bold; font-size: 13px; font-family: Arial; writing-mode: horizontal-tb; fill: rgb(0, 0, 0); fill-opacity: 1; fill-rule: nonzero; stroke: none; --darkreader-inline-fill: var(--darkreader-text-000000, #e8e6e3); --darkreader-inline-stroke: none;" id="text200" data-darkreader-inline-fill="" data-darkreader-inline-stroke=""><tspan x="0 10.829 14.43 18.031 25.259001 32.487 36.816002 44.745998 52.675999 59.903999 63.505001 70.733002 75.061996 78.663002 88.764 98.150002 101.751 105.352 114.738 118.339 121.94 129.168 137.09801 141.427" y="0" id="tspan198">Milestone 3: GUI Clients</tspan></text>
<text transform="translate(3,120.24512)" style="font-variant: normal; font-weight: bold; font-size: 13px; font-family: Arial; writing-mode: horizontal-tb; fill: rgb(0, 0, 0); fill-opacity: 1; fill-rule: nonzero; stroke: none; --darkreader-inline-fill: var(--darkreader-text-000000, #e8e6e3); --darkreader-inline-stroke: none;" id="text204" data-darkreader-inline-fill="" data-darkreader-inline-stroke=""><tspan x="0 7.9299998 11.531 19.461 26.688999 30.290001 33.890999 42.549 50.479 54.080002 57.681 64.908997 72.838997 76.440002 83.667999 91.598 99.528 102.648 112.034 119.964 127.894 131.495 135.82401 139.425 147.355 155.285" y="0" id="tspan202">Final Polish and Additions</tspan></text>
</g></g></g></g></g></svg>